<svg xmlns="http://www.w3.org/2000/svg" xmlns:xlink="http://www.w3.org/1999/xlink" width="151" zoomAndPan="magnify" viewBox="0 0 113.25 84.749997" height="113" preserveAspectRatio="xMidYMid meet" version="1.0"><defs><g/><clipPath id="a2689a73b4"><path d="M 68 13 L 112.503906 13 L 112.503906 19 L 68 19 Z M 68 13 " clip-rule="nonzero"/></clipPath><clipPath id="530b16fd0a"><path d="M 107 13 L 112.503906 13 L 112.503906 54 L 107 54 Z M 107 13 " clip-rule="nonzero"/></clipPath><clipPath id="fc3b5f4b8c"><path d="M 42.070312 30 L 58.101562 30 L 58.101562 35.011719 L 42.070312 35.011719 Z M 42.070312 30 " clip-rule="nonzero"/></clipPath><clipPath id="24d6b00691"><path d="M 42.070312 40.980469 L 58.101562 40.980469 L 58.101562 45.996094 L 42.070312 45.996094 Z M 42.070312 40.980469 " clip-rule="nonzero"/></clipPath><clipPath id="b3bc206237"><path d="M 42.070312 51.804688 L 55.382812 51.804688 L 55.382812 57.203125 L 42.070312 57.203125 Z M 42.070312 51.804688 " clip-rule="nonzero"/></clipPath><clipPath id="4360903811"><path d="M 42.066406 30.179688 L 47.46875 30.179688 L 47.46875 57.203125 L 42.066406 57.203125 Z M 42.066406 30.179688 " clip-rule="nonzero"/></clipPath></defs><g fill="#404040" fill-opacity="1"><g transform="translate(16.834782, 56.829556)"><g><path d="M 18.5 -0.4375 C 18.539062 -0.320312 18.53125 -0.21875 18.46875 -0.125 C 18.414062 -0.0390625 18.320312 0 18.1875 0 L 13.34375 0 C 13.164062 0 13.054688 -0.0664062 13.015625 -0.203125 L 8.0625 -10.9375 L 5.15625 -10.9375 L 5.15625 -0.3125 C 5.15625 -0.101562 5.03125 0 4.78125 0 L 0.34375 0 C 0.113281 0 0 -0.101562 0 -0.3125 L 0 -15.921875 L 9.109375 -15.921875 C 9.378906 -15.921875 9.738281 -15.941406 10.1875 -15.984375 C 10.644531 -16.035156 11.09375 -16.160156 11.53125 -16.359375 C 11.96875 -16.566406 12.335938 -16.878906 12.640625 -17.296875 C 12.953125 -17.710938 13.109375 -18.289062 13.109375 -19.03125 C 13.109375 -19.78125 12.941406 -20.367188 12.609375 -20.796875 C 12.285156 -21.222656 11.882812 -21.53125 11.40625 -21.71875 C 10.9375 -21.914062 10.488281 -22.039062 10.0625 -22.09375 C 9.632812 -22.15625 9.316406 -22.1875 9.109375 -22.1875 L 0 -22.1875 L 0 -26.796875 C 0 -26.992188 0.113281 -27.09375 0.34375 -27.09375 L 9.109375 -27.09375 C 9.429688 -27.09375 9.941406 -27.066406 10.640625 -27.015625 C 11.335938 -26.960938 12.117188 -26.8125 12.984375 -26.5625 C 13.859375 -26.3125 14.695312 -25.898438 15.5 -25.328125 C 16.300781 -24.765625 16.960938 -23.972656 17.484375 -22.953125 C 18.003906 -21.941406 18.265625 -20.632812 18.265625 -19.03125 C 18.265625 -17.65625 18.035156 -16.488281 17.578125 -15.53125 C 17.128906 -14.570312 16.523438 -13.785156 15.765625 -13.171875 C 15.015625 -12.566406 14.1875 -12.09375 13.28125 -11.75 C 14.132812 -9.832031 15.007812 -7.9375 15.90625 -6.0625 C 16.800781 -4.1875 17.664062 -2.3125 18.5 -0.4375 Z M 18.5 -0.4375 "/></g></g></g><g fill="#404040" fill-opacity="1"><g transform="translate(40.03838, 56.829556)"><g/></g></g><g fill="#404040" fill-opacity="1"><g transform="translate(52.232815, 56.829556)"><g/></g></g><g fill="#404040" fill-opacity="1"><g transform="translate(64.428999, 56.829556)"><g><path d="M 11.046875 -4.640625 C 11.296875 -4.640625 11.421875 -4.539062 11.421875 -4.34375 L 11.421875 -0.3125 C 11.421875 -0.101562 11.296875 0 11.046875 0 L 0.375 0 C 0.125 0 0 -0.101562 0 -0.3125 L 0 -4.34375 C 0 -4.539062 0.125 -4.640625 0.375 -4.640625 L 3.15625 -4.640625 L 3.15625 -27.09375 L 8.328125 -27.09375 L 8.328125 -4.640625 Z M 11.046875 -4.640625 "/></g></g></g><g fill="#404040" fill-opacity="1"><g transform="translate(80.146086, 56.829556)"><g><path d="M 5.59375 -17.28125 L 10.734375 -17.28125 L 10.734375 -0.3125 C 10.734375 -0.101562 10.597656 0 10.328125 0 L 5.96875 0 C 5.71875 0 5.59375 -0.101562 5.59375 -0.3125 Z M 0.375 -22.453125 C 0.125 -22.453125 0 -22.554688 0 -22.765625 L 0 -26.796875 C 0 -26.992188 0.125 -27.09375 0.375 -27.09375 L 15.921875 -27.09375 C 16.171875 -27.09375 16.296875 -26.992188 16.296875 -26.796875 L 16.296875 -22.765625 C 16.296875 -22.554688 16.171875 -22.453125 15.921875 -22.453125 Z M 0.375 -22.453125 "/></g></g></g><g clip-path="url(#a2689a73b4)"><path stroke-linecap="butt" transform="matrix(-0.483881, 0, 0, -0.483881, 112.222343, 18.824764)" fill="none" stroke-linejoin="miter" d="M -0.000646613 4.99816 L 84.432265 4.99816 " stroke="#404040" stroke-width="10" stroke-opacity="1" stroke-miterlimit="4"/></g><g clip-path="url(#530b16fd0a)"><path stroke-linecap="butt" transform="matrix(0, -0.483881, 0.483881, 0, 107.387084, 50.668768)" fill="none" stroke-linejoin="miter" d="M 0.00165084 4.996279 L 72.57569 4.996279 " stroke="#404040" stroke-width="10" stroke-opacity="1" stroke-miterlimit="4"/></g><path stroke-linecap="butt" transform="matrix(0.483881, 0, 0, 0.483881, 0.520049, 66.514046)" fill="none" stroke-linejoin="miter" d="M -0.00107056 5.000296 L 84.431841 5.000296 " stroke="#404040" stroke-width="10" stroke-opacity="1" stroke-miterlimit="4"/><path stroke-linecap="butt" transform="matrix(0, 0.483881, -0.483881, 0, 5.356377, 30.001245)" fill="none" stroke-linejoin="miter" d="M -0.00257286 4.998911 L 82.460587 4.998911 " stroke="#404040" stroke-width="10" stroke-opacity="1" stroke-miterlimit="4"/><g clip-path="url(#fc3b5f4b8c)"><path fill="#00a6d6" d="M 42.070312 30 L 58.09375 30 L 58.09375 35.011719 L 42.070312 35.011719 Z M 42.070312 30 " fill-opacity="1" fill-rule="nonzero"/></g><g clip-path="url(#24d6b00691)"><path fill="#00a6d6" d="M 42.070312 40.980469 L 58.09375 40.980469 L 58.09375 45.996094 L 42.070312 45.996094 Z M 42.070312 40.980469 " fill-opacity="1" fill-rule="nonzero"/></g><g clip-path="url(#b3bc206237)"><path fill="#00a6d6" d="M 42.070312 51.804688 L 55.382812 51.804688 L 55.382812 57.203125 L 42.070312 57.203125 Z M 42.070312 51.804688 " fill-opacity="1" fill-rule="nonzero"/></g><g clip-path="url(#4360903811)"><path fill="#00a6d6" d="M 47.46875 30.179688 L 47.46875 57.203125 L 42.066406 57.203125 L 42.066406 30.179688 Z M 47.46875 30.179688 " fill-opacity="1" fill-rule="nonzero"/></g></svg>