<svg version="1.2" xmlns="http://www.w3.org/2000/svg" viewBox="0 0 1920 557" width="1920" height="557">
	<title>Taxila_logo_def_Logo-main-option2-ai</title>
	<style>
		.s0 { fill: #2e3191 } 
		.s1 { fill: #a685ff } 
		.s2 { fill: #fff200 } 
	</style>
	<g id="Layer 1">
		<path id="&lt;Compound Path&gt;" class="s0" d="m186.4 219.3h-72.9v-86.7h310l-34.4 86.7h-105v216.7h-97.7z"/>
		<path id="&lt;Compound Path&gt;" fill-rule="evenodd" class="s0" d="m463.5 132.6h95.4l120.8 303.4h-105.6l-16.6-44.3h-107.4l-16.6 44.3h-91.3zm70.5 196.4l-10.6-28.6-19.3-57.2-19.8 57.2-10.6 28.6z"/>
		<path id="&lt;Compound Path&gt;" class="s0" d="m800 284.3l-105.1-151.7h118.9l35.1 53.9 14.7 26.8 15.2-26.3 35.5-54.4h106.5l-104.2 149.4 105.6 154h-118.9l-33.7-54.9-17-30.9-17.1 30-36 55.8h-106.9z"/>
		<path id="&lt;Compound Path&gt;" class="s0" d="m1057.3 209h97.7v227h-97.7z"/>
		<path id="&lt;Compound Path&gt;" fill-rule="evenodd" class="s0" d="m1549.6 132.6h95.4l120.8 303.4h-105.5l-16.6-44.3h-107.5l-16.6 44.3h-91.2zm70.5 196.4l-10.6-28.6-19.4-57.2-19.8 57.2-10.6 28.6z"/>
		<path id="&lt;Path&gt;" class="s0" d="m1308 349.3v-216.7h-20.6-11.2-20.6c-0.3-3.6-1-7-2-10.3h-51.5v62q2.9 0.3 5.9 0.4c0.8 0 1.5-0.1 2.3-0.2q0 0 0 0v1.3-1.3q0 0 0 0v1.3 19.3q0 0 0 0 0 0 0 0v7.9 223h177.8l34.6-86.7z"/>
		<path id="&lt;Path&gt;" class="s1" d="m1276.2 132.6c-2.2-35.7-31.9-64.2-68.2-64.2-37.7 0-68.4 30.7-68.4 68.4 0 37.8 30.7 68.4 68.4 68.4 0.8 0 1.5-0.1 2.3-0.1q0 0 0 0v-19.3-1.3c-0.8 0.1-1.5 0.2-2.3 0.2q-3-0.1-5.9-0.4c-23.6-3-41.9-23.1-41.9-47.5 0-26.3 21.5-47.8 47.8-47.8 21.3 0 39.4 14 45.6 33.3 1 3.3 1.7 6.7 2 10.3h20.6q0 0 0 0 0 0 0 0z"/>
		<path id="&lt;Path&gt;" class="s2" d="m1276.4 136.8c0-1.4-0.1-2.8-0.2-4.2h-20.6q0 0 0 0 0.2 2.1 0.3 4.2c0 25.6-20.3 46.6-45.6 47.7q0 0 0 0v1.3 19.3c36.7-1.2 66.1-31.3 66.1-68.3z"/>
	</g>
</svg>